<svg xmlns="http://www.w3.org/2000/svg" version="1.1" xmlns:xlink="http://www.w3.org/1999/xlink" xmlns:svgjs="http://svgjs.dev/svgjs" width="2000" height="1553" viewBox="0 0 2000 1553"><g transform="matrix(1,0,0,1,1.2386344007953767,0.6287449392712006)"><svg viewBox="0 0 318 247" data-background-color="#ffffff" preserveAspectRatio="xMidYMid meet" height="1553" width="2000" xmlns="http://www.w3.org/2000/svg" xmlns:xlink="http://www.w3.org/1999/xlink"><g id="tight-bounds" transform="matrix(1,0,0,1,-0.19694286972645614,-0.09999999999999432)"><svg viewBox="0 0 318.3938857394529 247.2" height="247.2" width="318.3938857394529"><g><svg viewBox="0 0 397.4975999999999 308.6158721038034" height="247.2" width="318.3938857394529"><g><rect width="397.4975999999999" height="8.828180240293408" x="0" y="158.39990132839682" fill="#202046" opacity="1" stroke-width="0" stroke="transparent" fill-opacity="1" class="rect-qz-0" data-fill-palette-color="primary" rx="1%" id="qz-0" data-palette-color="#202046"></rect></g><g><rect width="397.4975999999999" height="8.828180240293408" x="0" y="178.78329130729418" fill="#202046" opacity="1" stroke-width="0" stroke="transparent" fill-opacity="1" class="rect-qz-1" data-fill-palette-color="primary" rx="1%" id="qz-1" data-palette-color="#202046"></rect></g><g transform="matrix(1,0,0,1,0.9887999999999693,210.72189102479547)"><svg viewBox="0 0 395.52 97.89398107900792" height="97.89398107900792" width="395.52"><g id="textblocktransform"><svg viewBox="0 0 395.52 97.89398107900792" height="97.89398107900792" width="395.52" id="textblock"><g><svg viewBox="0 0 395.52 97.89398107900792" height="97.89398107900792" width="395.52"><g transform="matrix(1,0,0,1,0,0)"><svg width="395.52" viewBox="1.5 -37.55 195.53 48.4" height="97.89398107900792" data-palette-color="#202046"><path d="M23.05-9.15L25.7-8.95Q25.85-4 25.1 0L25.1 0 1.8 0 1.5-1.6 5.75-3.15 5.75-29.9 2.2-30.1 2.25-32.5 25.1-32.5 25.15-30.8Q25.15-27.3 24.6-24.25L24.6-24.25 21.9-24.25 21.3-28.85 10.4-29.6 10.4-17.7 21.85-18.55 21.85-14.2 10.4-14.7 10.4-3.25 21.75-3.75 23.05-9.15ZM43.1-12.4L50.1-3.15Q52.3-2.9 53.4-2.4L53.4-2.4 53.1 0 42.9 0 42.65-1.65 45.5-2.75 40.05-9.8 35.15-3.1Q36.95-2.85 38.1-2.4L38.1-2.4 37.8 0 27.65 0 27.4-1.65 30.45-2.8 38.1-12.3 31.55-20.75 28.7-20.95 28.75-23.4 38.5-23.4 38.8-21.6 36.75-20.8 41.3-14.8 45.7-20.8 43.05-20.95 43.1-23.4 52.2-23.4 52.5-21.6 49.5-20.45 43.1-12.4ZM67.5 0.95L67.5 0.95Q65.59 0.95 63.65 0.5L63.65 0.5 63.65 6.95Q66.4 7.2 67.75 7.8L67.75 7.8 67.45 10.2 56.15 10.2 55.9 8.55 59.2 7.35 59.2-20.6 55.5-20.3 54.9-22.65Q58.25-24.1 61.7-24.2L61.7-24.2 63.65-22.45 63.65-20.35 69.3-24.05 71.2-24.25Q75.15-24.25 77.77-20.88 80.4-17.5 80.4-12.5L80.4-12.5Q80.4-6.7 76.75-2.88 73.09 0.95 67.5 0.95ZM69.55-20.15L69.55-20.15Q67.3-20.15 63.65-17.8L63.65-17.8 63.65-4Q66.05-2.35 69.45-2.35L69.45-2.35 71.45-2.5Q73.4-3.7 74.55-6.2 75.7-8.7 75.7-11.5L75.7-11.5Q75.7-15.05 73.95-17.6 72.2-20.15 69.55-20.15ZM90.44-35L90.44-3.2Q92.94-2.9 94.04-2.4L94.04-2.4 93.74 0 82.44 0 82.19-1.65Q83.39-2.25 85.99-3.05L85.99-3.05 85.99-33.15 82.24-32.85 81.64-35.2Q84.99-36.65 88.44-36.75L88.44-36.75 90.44-35ZM96.04-11.8Q96.04-17.4 99.22-20.9 102.39-24.4 107.34-24.4L107.34-24.4Q112.24-24.4 115.29-20.8 118.34-17.2 118.34-11.5L118.34-11.5Q118.34-5.85 115.34-2.43 112.34 1 107.44 1L107.44 1Q102.49 1 99.27-2.6 96.04-6.2 96.04-11.8ZM110.39-2.6L110.39-2.6Q113.64-4.75 113.64-10.95L113.64-10.95Q113.64-15.4 111.99-18.35 110.34-21.3 106.94-21.3L106.94-21.3Q104.69-21.3 103.14-20.2L103.14-20.2Q100.79-17.4 100.79-12.35L100.79-12.35Q100.79-8.05 102.62-5.15 104.44-2.25 107.99-2.25L107.99-2.25Q109.14-2.25 110.39-2.6ZM140.14-23.15L140.14-23.15Q140.34-19.45 139.24-15.05L139.24-15.05 136.54-15.05 135.99-20.55Q131.94-18.3 129.14-14.6L129.14-14.6 129.14-3.3Q132.79-3.05 134.29-2.4L134.29-2.4 133.99 0 121.29 0 121.04-1.65 124.69-3 124.69-20.6 120.94-20.3 120.34-22.65Q123.69-24.1 127.14-24.2L127.14-24.2 129.14-22.45 129.14-17.9 134.39-23.5Q135.84-24.1 137.04-24.1L137.04-24.1Q138.64-24.1 140.14-23.15ZM148.49-28.65L148.49-28.65Q146.04-29.7 144.64-31.65L144.64-31.65Q145.94-34.35 147.69-35.45L147.69-35.45Q149.94-34.55 151.44-32.45L151.44-32.45Q150.64-30.15 148.49-28.65ZM150.49-22.45L150.49-3.2Q152.99-2.9 154.09-2.4L154.09-2.4 153.79 0 142.49 0 142.24-1.65Q143.44-2.25 146.04-3.05L146.04-3.05 146.04-20.6 142.29-20.3 141.69-22.65Q145.04-24.1 148.49-24.2L148.49-24.2 150.49-22.45ZM173.13-35.1L170.33-31.1Q167.78-33.55 164.93-33.55L164.93-33.55Q163.88-33.55 162.78-33.15L162.78-33.15 163.93-23.4 169.18-23.4 169.33-22 166.98-19.55 163.68-19.55 163.68-3.3Q166.83-3 168.23-2.4L168.23-2.4 167.93 0 156.08 0 155.83-1.65 159.23-2.9 159.23-19.65 156.13-19.55 155.83-22Q157.13-22.6 159.23-23.1L159.23-23.1 159.23-28.15Q159.23-32.25 161.63-34.9 164.03-37.55 167.48-37.55L167.48-37.55Q170.78-37.55 173.13-35.1L173.13-35.1ZM196.73-23.4L197.03-21.6 193.83-20.4Q190.98-11.15 187.98-2.8L187.98-2.8Q186.08 1.65 183.38 5 180.68 8.35 176.53 10.85L176.53 10.85 174.03 6.3Q180.13 3.75 183.33 0.2L183.33 0.2Q181.73-0.35 180.68-1.35L180.68-1.35 173.63-20.8 170.88-20.95 170.93-23.4 181.43-23.4 181.73-21.6 178.83-20.5 182.63-9.1 183.48-3.35 184.43-3.35Q187.28-11.25 189.48-20.8L189.48-20.8 186.48-20.95 186.53-23.4 196.73-23.4Z" opacity="1" transform="matrix(1,0,0,1,0,0)" fill="#202046" class="wordmark-text-0" data-fill-palette-color="primary" id="text-0"></path></svg></g></svg></g></svg></g></svg></g><g transform="matrix(1,0,0,1,131.10330746617296,0)"><svg viewBox="0 0 135.29098506765396 135.28948185118895" height="135.28948185118895" width="135.29098506765396"><g><svg xmlns="http://www.w3.org/2000/svg" xmlns:xlink="http://www.w3.org/1999/xlink" version="1.1" x="0" y="0" viewBox="4.967 5 90.001 90" enable-background="new 0 0 100 100" xml:space="preserve" height="135.28948185118895" width="135.29098506765396" class="icon-icon-0" data-fill-palette-color="accent" id="icon-0"><g fill="#fe633d" data-fill-palette-color="accent"><polygon points="81.588,69.219 76.042,77.733 49.901,5 30.566,58.797 24.486,43.546 4.967,95 17.555,95 45,95 64.794,95 82.249,95    94.968,95  " fill="#fe633d" data-fill-palette-color="accent"></polygon></g></svg></g></svg></g><g></g></svg></g><defs></defs></svg><rect width="318.3938857394529" height="247.2" fill="none" stroke="none" visibility="hidden"></rect></g></svg></g></svg>